<svg xmlns="http://www.w3.org/2000/svg" width="1750" height="1000" viewBox="90 360 1750 1000">
<path fill="#008040" fill-rule="evenodd" d="M 1166 889 L 1166 918 L 1186 923 L 1190 933 L 1191 1053 L 1201 1081 L 1216 1096 L 1237 1104 L 1275 1104 L 1297 1097 L 1321 1081 L 1326 1084 L 1326 1096 L 1329 1100 L 1390 1100 L 1394 1096 L 1393 1069 L 1379 1066 L 1369 1057 L 1369 891 L 1366 886 L 1300 885 L 1295 889 L 1296 918 L 1314 923 L 1319 930 L 1319 1031 L 1314 1044 L 1304 1057 L 1282 1067 L 1265 1067 L 1250 1060 L 1241 1039 L 1240 889 L 1231 885 L 1172 885 Z"/>
<path fill="#008040" fill-rule="evenodd" d="M 1612 913 L 1596 941 L 1591 954 L 1586 989 L 1586 1016 L 1592 1050 L 1607 1078 L 1626 1095 L 1639 1101 L 1653 1104 L 1680 1105 L 1694 1103 L 1710 1095 L 1726 1082 L 1732 1085 L 1731 1094 L 1737 1101 L 1796 1100 L 1799 1097 L 1799 1069 L 1793 1066 L 1782 1065 L 1775 1059 L 1774 895 L 1763 889 L 1725 880 L 1685 879 L 1664 882 L 1646 888 L 1632 895 Z M 1714 917 L 1722 920 L 1726 924 L 1727 928 L 1725 1040 L 1720 1052 L 1712 1060 L 1699 1068 L 1689 1070 L 1677 1070 L 1668 1068 L 1658 1063 L 1648 1053 L 1639 1027 L 1638 981 L 1644 952 L 1651 937 L 1662 925 L 1670 920 L 1684 916 Z"/>
<path fill="#008040" fill-rule="evenodd" d="M 1139 887 L 1108 879 L 1083 881 L 1065 889 L 1044 907 L 1039 904 L 1040 891 L 1034 885 L 977 885 L 968 889 L 967 905 L 969 917 L 973 920 L 983 920 L 994 924 L 997 932 L 997 1052 L 995 1061 L 992 1064 L 981 1068 L 974 1068 L 970 1072 L 970 1094 L 974 1100 L 1080 1100 L 1084 1097 L 1084 1070 L 1079 1067 L 1054 1066 L 1047 1060 L 1047 960 L 1049 949 L 1055 937 L 1066 927 L 1080 922 L 1093 922 L 1103 931 L 1103 951 L 1105 953 L 1138 952 L 1141 949 L 1142 892 Z"/>
<path fill="#008040" fill-rule="evenodd" d="M 766 889 L 719 879 L 677 882 L 649 896 L 633 913 L 626 933 L 625 958 L 635 984 L 644 993 L 667 1006 L 719 1021 L 732 1035 L 733 1051 L 731 1056 L 716 1068 L 701 1070 L 676 1068 L 661 1055 L 661 1036 L 658 1032 L 626 1033 L 623 1039 L 623 1087 L 627 1095 L 650 1102 L 667 1104 L 728 1103 L 756 1091 L 773 1075 L 783 1051 L 784 1030 L 779 1011 L 767 994 L 741 979 L 711 971 L 684 960 L 677 953 L 672 941 L 673 932 L 683 919 L 700 913 L 715 913 L 727 916 L 738 923 L 742 948 L 776 946 L 778 944 L 778 898 Z"/>
<path fill="#008040" fill-rule="evenodd" d="M 482 883 L 459 895 L 439 914 L 420 948 L 419 956 L 415 964 L 413 1011 L 415 1030 L 421 1052 L 432 1072 L 446 1086 L 460 1095 L 477 1102 L 501 1105 L 526 1105 L 543 1103 L 562 1097 L 584 1086 L 587 1082 L 587 1078 L 573 1050 L 534 1066 L 514 1067 L 503 1065 L 479 1053 L 471 1040 L 466 1026 L 466 1020 L 472 1015 L 504 1013 L 535 1006 L 564 990 L 575 979 L 586 956 L 587 927 L 584 914 L 571 896 L 547 882 L 527 879 L 505 879 Z M 537 924 L 540 930 L 541 946 L 536 956 L 526 966 L 512 973 L 495 978 L 471 980 L 465 976 L 465 963 L 468 952 L 480 930 L 488 923 L 502 916 L 521 915 L 530 918 Z"/>
<path fill="#008040" fill-rule="evenodd" d="M 1472 840 L 1467 844 L 1462 857 L 1452 873 L 1439 885 L 1433 888 L 1423 889 L 1420 892 L 1416 917 L 1421 921 L 1440 920 L 1446 925 L 1447 1064 L 1452 1079 L 1457 1087 L 1463 1093 L 1477 1101 L 1505 1106 L 1546 1102 L 1559 1096 L 1564 1091 L 1564 1085 L 1555 1063 L 1548 1061 L 1536 1067 L 1520 1068 L 1507 1063 L 1498 1053 L 1496 1037 L 1496 925 L 1502 921 L 1546 920 L 1550 913 L 1553 891 L 1550 886 L 1504 886 L 1498 883 L 1496 880 L 1495 842 L 1492 840 Z"/>
<path fill="#008040" fill-rule="evenodd" d="M 130 817 L 128 820 L 129 849 L 135 852 L 146 852 L 153 858 L 153 1054 L 148 1062 L 127 1068 L 127 1098 L 130 1100 L 258 1100 L 282 1097 L 300 1091 L 333 1072 L 352 1052 L 364 1030 L 372 1007 L 377 982 L 377 915 L 370 889 L 358 865 L 334 840 L 314 829 L 282 819 L 264 816 Z M 212 856 L 258 857 L 277 863 L 282 863 L 288 866 L 298 874 L 311 888 L 323 913 L 326 937 L 327 965 L 324 992 L 321 1005 L 318 1010 L 317 1016 L 306 1033 L 291 1048 L 276 1056 L 254 1060 L 219 1061 L 212 1060 L 204 1055 L 204 862 L 206 859 Z"/>
<path fill="#008040" fill-rule="evenodd" d="M 956 798 L 931 792 L 912 791 L 887 793 L 865 802 L 850 817 L 841 840 L 839 881 L 833 885 L 807 885 L 802 889 L 802 915 L 806 921 L 832 920 L 839 925 L 839 1055 L 832 1065 L 813 1070 L 811 1074 L 812 1096 L 816 1100 L 912 1099 L 919 1101 L 925 1095 L 925 1071 L 922 1067 L 895 1065 L 888 1059 L 888 927 L 896 920 L 950 920 L 953 912 L 953 890 L 949 886 L 894 885 L 888 880 L 889 856 L 894 840 L 900 834 L 911 829 L 930 829 L 954 838 L 959 837 L 970 808 L 966 803 Z"/>
<path fill="#F86000" fill-rule="evenodd" d="M 1166 1202 L 1160 1209 L 1146 1243 L 1141 1250 L 1139 1259 L 1116 1308 L 1116 1317 L 1138 1317 L 1147 1298 L 1155 1293 L 1198 1293 L 1207 1298 L 1212 1313 L 1215 1317 L 1238 1317 L 1238 1308 L 1191 1204 L 1185 1201 Z M 1177 1235 L 1182 1238 L 1192 1265 L 1192 1269 L 1186 1273 L 1167 1273 L 1160 1269 L 1160 1265 L 1166 1250 L 1171 1243 L 1172 1238 Z"/>
<path fill="#F86000" fill-rule="evenodd" d="M 1064 1206 L 1040 1201 L 993 1201 L 990 1203 L 988 1211 L 988 1293 L 989 1315 L 992 1318 L 1011 1318 L 1014 1315 L 1014 1293 L 1017 1288 L 1024 1285 L 1047 1285 L 1063 1282 L 1072 1277 L 1085 1263 L 1089 1251 L 1089 1240 L 1086 1228 L 1080 1218 Z M 1016 1226 L 1021 1223 L 1040 1223 L 1054 1227 L 1062 1238 L 1062 1249 L 1060 1253 L 1054 1260 L 1042 1264 L 1021 1264 L 1015 1260 L 1014 1236 Z"/>
<path fill="#F86000" fill-rule="evenodd" d="M 872 1202 L 870 1236 L 871 1315 L 875 1318 L 953 1317 L 956 1313 L 955 1301 L 952 1297 L 908 1297 L 898 1293 L 897 1206 L 892 1201 Z"/>
<path fill="#F86000" fill-rule="evenodd" d="M 654 1208 L 640 1203 L 629 1201 L 580 1201 L 575 1204 L 574 1301 L 576 1317 L 596 1318 L 599 1315 L 600 1290 L 606 1286 L 635 1285 L 649 1282 L 660 1275 L 671 1263 L 675 1244 L 671 1226 L 668 1220 Z M 601 1226 L 606 1223 L 626 1223 L 633 1224 L 644 1231 L 648 1239 L 647 1252 L 642 1258 L 632 1263 L 607 1264 L 603 1262 L 600 1258 Z"/>
<path fill="#F86000" fill-rule="evenodd" d="M 1294 1201 L 1277 1210 L 1270 1218 L 1265 1230 L 1267 1248 L 1269 1252 L 1282 1263 L 1294 1268 L 1318 1273 L 1325 1276 L 1331 1282 L 1332 1289 L 1327 1295 L 1313 1299 L 1289 1296 L 1277 1290 L 1272 1290 L 1269 1292 L 1264 1305 L 1269 1311 L 1273 1313 L 1295 1319 L 1325 1319 L 1341 1314 L 1351 1305 L 1357 1295 L 1359 1288 L 1359 1279 L 1355 1269 L 1348 1261 L 1339 1256 L 1323 1250 L 1309 1248 L 1298 1244 L 1293 1239 L 1292 1232 L 1296 1225 L 1310 1221 L 1320 1221 L 1331 1223 L 1338 1226 L 1346 1226 L 1351 1216 L 1351 1209 L 1340 1203 L 1325 1200 Z"/>
<path fill="#F86000" fill-rule="evenodd" d="M 752 1201 L 737 1207 L 725 1215 L 713 1230 L 708 1242 L 706 1252 L 706 1267 L 708 1279 L 714 1292 L 719 1296 L 721 1301 L 732 1310 L 750 1318 L 764 1320 L 784 1319 L 794 1316 L 812 1306 L 825 1292 L 832 1269 L 831 1243 L 826 1231 L 818 1220 L 804 1208 L 779 1200 Z M 756 1224 L 763 1222 L 779 1223 L 794 1231 L 798 1235 L 804 1246 L 806 1265 L 803 1277 L 796 1287 L 783 1296 L 757 1296 L 742 1286 L 734 1273 L 732 1265 L 732 1253 L 735 1244 L 746 1230 Z"/>
<path fill="#F86000" fill-rule="evenodd" d="M 787 561 L 779 569 L 776 577 L 776 588 L 780 605 L 789 622 L 800 633 L 823 651 L 830 654 L 835 659 L 848 667 L 867 676 L 868 674 L 865 670 L 862 661 L 852 645 L 849 636 L 846 633 L 837 614 L 813 572 L 806 565 L 797 560 Z"/>
<path fill="#F86000" fill-rule="evenodd" d="M 1142 519 L 1130 507 L 1116 501 L 1101 497 L 1087 497 L 1075 499 L 1063 504 L 1059 504 L 1047 512 L 1027 530 L 1025 535 L 1021 539 L 1009 564 L 1002 599 L 1003 622 L 1007 622 L 1017 613 L 1052 589 L 1095 569 L 1101 568 L 1110 563 L 1127 557 L 1138 550 L 1142 546 L 1146 537 L 1146 529 Z"/>
<path fill="#F86000" fill-rule="evenodd" d="M 914 404 L 903 406 L 897 409 L 887 418 L 878 430 L 875 441 L 871 448 L 866 465 L 864 479 L 864 545 L 871 580 L 875 589 L 877 599 L 890 628 L 915 668 L 937 692 L 941 693 L 943 689 L 941 681 L 941 660 L 939 642 L 941 576 L 946 542 L 948 516 L 952 503 L 954 484 L 956 478 L 957 451 L 952 431 L 942 417 L 933 409 L 921 404 Z"/>
</svg>
